<?xml version="1.0" encoding="UTF-8" standalone="no"?>
<!DOCTYPE svg PUBLIC "-//W3C//DTD SVG 1.1//EN"
 "http://www.w3.org/Graphics/SVG/1.1/DTD/svg11.dtd">
<!-- Generated by graphviz version 2.42.4 (0)
 -->
<!-- Pages: 1 -->
<svg width="786pt" height="520pt"
 viewBox="0.00 0.00 785.87 520.00" xmlns="http://www.w3.org/2000/svg" xmlns:xlink="http://www.w3.org/1999/xlink">
<g id="graph0" class="graph" transform="scale(1 1) rotate(0) translate(4 516)">
<polygon fill="white" stroke="transparent" points="-4,4 -4,-516 781.87,-516 781.87,4 -4,4"/>
<!-- outcome -->
<g id="node1" class="node">
<title>outcome</title>
<ellipse fill="none" stroke="red" stroke-width="2" cx="510.81" cy="-50.5" rx="50.5" ry="50.5"/>
<text text-anchor="middle" x="510.81" y="-46.8" font-family="times bold" font-size="14.00" fill="Red">Outcome</text>
</g>
<!-- stroke_team -->
<g id="node2" class="node">
<title>stroke_team</title>
<ellipse fill="none" stroke="black" cx="154.81" cy="-461.5" rx="50.5" ry="50.5"/>
<text text-anchor="middle" x="154.81" y="-465.3" font-family="Times,serif" font-size="14.00">Stroke</text>
<text text-anchor="middle" x="154.81" y="-450.3" font-family="Times,serif" font-size="14.00">team</text>
</g>
<!-- stroke_team&#45;&gt;outcome -->
<g id="edge2" class="edge">
<title>stroke_team&#45;&gt;outcome</title>
<path fill="none" stroke="Black" d="M106.98,-445.07C74.92,-431.95 35.16,-409.62 15.81,-375 -6.09,-335.82 -4.12,-314.22 15.81,-274 96.45,-111.29 336.23,-67.46 449.83,-55.74"/>
<polygon fill="Black" stroke="Black" points="450.48,-59.19 460.09,-54.73 449.8,-52.23 450.48,-59.19"/>
</g>
<!-- scan -->
<g id="node4" class="node">
<title>scan</title>
<ellipse fill="none" stroke="black" cx="233.81" cy="-324.5" rx="50.5" ry="50.5"/>
<text text-anchor="middle" x="233.81" y="-328.3" font-family="Times,serif" font-size="14.00">Arrival to</text>
<text text-anchor="middle" x="233.81" y="-313.3" font-family="Times,serif" font-size="14.00">scan time</text>
</g>
<!-- stroke_team&#45;&gt;scan -->
<g id="edge16" class="edge">
<title>stroke_team&#45;&gt;scan</title>
<path fill="none" stroke="Black" d="M180.02,-417.41C187.44,-404.75 195.62,-390.76 203.33,-377.6"/>
<polygon fill="Black" stroke="Black" points="206.54,-379.04 208.57,-368.64 200.49,-375.5 206.54,-379.04"/>
</g>
<!-- thrombolysis -->
<g id="node9" class="node">
<title>thrombolysis</title>
<ellipse fill="none" stroke="red" stroke-width="2" cx="431.81" cy="-187.5" rx="50.5" ry="50.5"/>
<text text-anchor="middle" x="431.81" y="-191.3" font-family="times bold" font-size="14.00" fill="Red">Thrombolysis</text>
<text text-anchor="middle" x="431.81" y="-176.3" font-family="times bold" font-size="14.00" fill="Red">(use/time)</text>
</g>
<!-- stroke_team&#45;&gt;thrombolysis -->
<g id="edge7" class="edge">
<title>stroke_team&#45;&gt;thrombolysis</title>
<path fill="none" stroke="Black" d="M146.26,-411.46C141.97,-370.33 143.06,-312.33 173.81,-274 198.88,-242.76 304.18,-215.35 372.26,-200.43"/>
<polygon fill="Black" stroke="Black" points="373.4,-203.76 382.44,-198.23 371.92,-196.92 373.4,-203.76"/>
</g>
<!-- nihss -->
<g id="node3" class="node">
<title>nihss</title>
<ellipse fill="none" stroke="black" cx="75.81" cy="-324.5" rx="50.5" ry="50.5"/>
<text text-anchor="middle" x="75.81" y="-328.3" font-family="Times,serif" font-size="14.00">Stroke</text>
<text text-anchor="middle" x="75.81" y="-313.3" font-family="Times,serif" font-size="14.00">severity</text>
</g>
<!-- nihss&#45;&gt;outcome -->
<g id="edge1" class="edge">
<title>nihss&#45;&gt;outcome</title>
<path fill="none" stroke="Black" d="M115.18,-292.43C123.52,-286.16 132.36,-279.73 140.81,-274 250.41,-199.64 384.98,-121.93 457.84,-80.92"/>
<polygon fill="Black" stroke="Black" points="459.84,-83.81 466.84,-75.86 456.41,-77.71 459.84,-83.81"/>
</g>
<!-- nihss&#45;&gt;thrombolysis -->
<g id="edge9" class="edge">
<title>nihss&#45;&gt;thrombolysis</title>
<path fill="none" stroke="Black" d="M113.8,-290.94C122.32,-284.71 131.57,-278.67 140.81,-274 216.21,-235.86 311.42,-211.94 371.98,-199.4"/>
<polygon fill="Black" stroke="Black" points="373.03,-202.76 382.13,-197.34 371.64,-195.9 373.03,-202.76"/>
</g>
<!-- scan&#45;&gt;thrombolysis -->
<g id="edge8" class="edge">
<title>scan&#45;&gt;thrombolysis</title>
<path fill="none" stroke="Black" d="M271.56,-290.44C278.49,-284.78 285.76,-279.08 292.81,-274 320.48,-254.05 352.86,-233.95 379.41,-218.26"/>
<polygon fill="Black" stroke="Black" points="381.32,-221.2 388.17,-213.12 377.78,-215.16 381.32,-221.2"/>
</g>
<!-- mrs -->
<g id="node5" class="node">
<title>mrs</title>
<ellipse fill="none" stroke="black" cx="706.81" cy="-324.5" rx="50.5" ry="50.5"/>
<text text-anchor="middle" x="706.81" y="-328.3" font-family="Times,serif" font-size="14.00">Prior</text>
<text text-anchor="middle" x="706.81" y="-313.3" font-family="Times,serif" font-size="14.00">disability</text>
</g>
<!-- mrs&#45;&gt;outcome -->
<g id="edge3" class="edge">
<title>mrs&#45;&gt;outcome</title>
<path fill="none" stroke="Black" d="M686.82,-278.06C668.35,-238.67 638.55,-181.21 603.81,-137 590.42,-119.96 573.51,-103.33 557.79,-89.34"/>
<polygon fill="Black" stroke="Black" points="560.02,-86.64 550.19,-82.69 555.41,-91.91 560.02,-86.64"/>
</g>
<!-- mrs&#45;&gt;thrombolysis -->
<g id="edge10" class="edge">
<title>mrs&#45;&gt;thrombolysis</title>
<path fill="none" stroke="Black" d="M668.44,-291.65C659.95,-285.36 650.8,-279.13 641.81,-274 592.71,-245.97 532.6,-222.48 489.29,-207.25"/>
<polygon fill="Black" stroke="Black" points="490.36,-203.92 479.76,-203.94 488.06,-210.53 490.36,-203.92"/>
</g>
<!-- age -->
<g id="node6" class="node">
<title>age</title>
<ellipse fill="none" stroke="black" cx="706.81" cy="-461.5" rx="50.5" ry="50.5"/>
<text text-anchor="middle" x="706.81" y="-457.8" font-family="Times,serif" font-size="14.00">Age</text>
</g>
<!-- age&#45;&gt;outcome -->
<g id="edge4" class="edge">
<title>age&#45;&gt;outcome</title>
<path fill="none" stroke="Black" d="M740.41,-423.21C751,-409.12 761.35,-392.29 766.81,-375 780.33,-332.2 782.44,-316.08 766.81,-274 731.79,-179.69 629.5,-112.16 565.32,-77.67"/>
<polygon fill="Black" stroke="Black" points="566.61,-74.4 556.14,-72.82 563.35,-80.59 566.61,-74.4"/>
</g>
<!-- age&#45;&gt;mrs -->
<g id="edge18" class="edge">
<title>age&#45;&gt;mrs</title>
<path fill="none" stroke="Black" d="M706.81,-411C706.81,-402.76 706.81,-394.13 706.81,-385.66"/>
<polygon fill="Black" stroke="Black" points="710.31,-385.45 706.81,-375.45 703.31,-385.45 710.31,-385.45"/>
</g>
<!-- age&#45;&gt;thrombolysis -->
<g id="edge11" class="edge">
<title>age&#45;&gt;thrombolysis</title>
<path fill="none" stroke="Black" d="M677.91,-419.45C641.66,-368.23 582.68,-285.89 569.81,-274 544.8,-250.89 512.65,-230.54 485.68,-215.5"/>
<polygon fill="Black" stroke="Black" points="487.2,-212.35 476.75,-210.61 483.83,-218.49 487.2,-212.35"/>
</g>
<!-- sleep -->
<g id="node7" class="node">
<title>sleep</title>
<ellipse fill="none" stroke="black" cx="371.81" cy="-461.5" rx="50.5" ry="50.5"/>
<text text-anchor="middle" x="371.81" y="-465.3" font-family="Times,serif" font-size="14.00">Onset during</text>
<text text-anchor="middle" x="371.81" y="-450.3" font-family="Times,serif" font-size="14.00">sleep</text>
</g>
<!-- sleep&#45;&gt;thrombolysis -->
<g id="edge15" class="edge">
<title>sleep&#45;&gt;thrombolysis</title>
<path fill="none" stroke="Black" d="M395.66,-416.75C401.86,-403.66 407.89,-389.05 411.81,-375 423.37,-333.57 428.33,-285.25 430.42,-248.17"/>
<polygon fill="Black" stroke="Black" points="433.92,-248.19 430.93,-238.03 426.93,-247.84 433.92,-248.19"/>
</g>
<!-- precise -->
<g id="node11" class="node">
<title>precise</title>
<ellipse fill="none" stroke="black" cx="352.81" cy="-324.5" rx="50.5" ry="50.5"/>
<text text-anchor="middle" x="352.81" y="-335.8" font-family="Times,serif" font-size="14.00">Estimated or </text>
<text text-anchor="middle" x="352.81" y="-320.8" font-family="Times,serif" font-size="14.00">precicely known</text>
<text text-anchor="middle" x="352.81" y="-305.8" font-family="Times,serif" font-size="14.00">onset time</text>
</g>
<!-- sleep&#45;&gt;precise -->
<g id="edge17" class="edge">
<title>sleep&#45;&gt;precise</title>
<path fill="none" stroke="Black" d="M364.9,-411.38C363.68,-402.73 362.4,-393.63 361.15,-384.74"/>
<polygon fill="Black" stroke="Black" points="364.61,-384.22 359.75,-374.81 357.68,-385.2 364.61,-384.22"/>
</g>
<!-- af -->
<g id="node8" class="node">
<title>af</title>
<ellipse fill="none" stroke="black" cx="548.81" cy="-461.5" rx="50.5" ry="50.5"/>
<text text-anchor="middle" x="548.81" y="-465.3" font-family="Times,serif" font-size="14.00">Atrial</text>
<text text-anchor="middle" x="548.81" y="-450.3" font-family="Times,serif" font-size="14.00">fibrillation</text>
</g>
<!-- af&#45;&gt;outcome -->
<g id="edge5" class="edge">
<title>af&#45;&gt;outcome</title>
<path fill="none" stroke="Black" d="M562.75,-412.49C565.67,-400.36 568.32,-387.29 569.81,-375 575.2,-330.44 575.61,-318.51 569.81,-274 562.32,-216.53 544.38,-152.76 530.24,-108.28"/>
<polygon fill="Black" stroke="Black" points="533.49,-106.98 527.1,-98.53 526.83,-109.12 533.49,-106.98"/>
</g>
<!-- anticoag -->
<g id="node10" class="node">
<title>anticoag</title>
<ellipse fill="none" stroke="black" cx="510.81" cy="-324.5" rx="50.5" ry="50.5"/>
<text text-anchor="middle" x="510.81" y="-320.8" font-family="Times,serif" font-size="14.00">Anticoagulation</text>
</g>
<!-- af&#45;&gt;anticoag -->
<g id="edge12" class="edge">
<title>af&#45;&gt;anticoag</title>
<path fill="none" stroke="Black" d="M535.31,-412.52C532.62,-402.97 529.77,-392.86 527,-383.02"/>
<polygon fill="Black" stroke="Black" points="530.35,-382 524.27,-373.32 523.61,-383.9 530.35,-382"/>
</g>
<!-- thrombolysis&#45;&gt;outcome -->
<g id="edge6" class="edge">
<title>thrombolysis&#45;&gt;outcome</title>
<path fill="none" stroke="Red" d="M457.02,-143.41C464.44,-130.75 472.62,-116.76 480.33,-103.6"/>
<polygon fill="Red" stroke="Red" points="483.54,-105.04 485.57,-94.64 477.49,-101.5 483.54,-105.04"/>
</g>
<!-- anticoag&#45;&gt;thrombolysis -->
<g id="edge13" class="edge">
<title>anticoag&#45;&gt;thrombolysis</title>
<path fill="none" stroke="Black" d="M485.6,-280.41C478.19,-267.75 470,-253.76 462.3,-240.6"/>
<polygon fill="Black" stroke="Black" points="465.13,-238.5 457.06,-231.64 459.09,-242.04 465.13,-238.5"/>
</g>
<!-- precise&#45;&gt;thrombolysis -->
<g id="edge14" class="edge">
<title>precise&#45;&gt;thrombolysis</title>
<path fill="none" stroke="Black" d="M378.02,-280.41C385.44,-267.75 393.62,-253.76 401.33,-240.6"/>
<polygon fill="Black" stroke="Black" points="404.54,-242.04 406.57,-231.64 398.49,-238.5 404.54,-242.04"/>
</g>
</g>
</svg>