<?xml version="1.0" encoding="UTF-8" standalone="no"?>
<!DOCTYPE svg PUBLIC "-//W3C//DTD SVG 1.1//EN"
 "http://www.w3.org/Graphics/SVG/1.1/DTD/svg11.dtd">
<!-- Generated by graphviz version 2.42.4 (0)
 -->
<!-- Pages: 1 -->
<svg width="969pt" height="520pt"
 viewBox="0.00 0.00 968.54 520.00" xmlns="http://www.w3.org/2000/svg" xmlns:xlink="http://www.w3.org/1999/xlink">
<g id="graph0" class="graph" transform="scale(1 1) rotate(0) translate(4 516)">
<polygon fill="white" stroke="transparent" points="-4,4 -4,-516 964.54,-516 964.54,4 -4,4"/>
<!-- outcome -->
<g id="node1" class="node">
<title>outcome</title>
<ellipse fill="none" stroke="red" stroke-width="2" cx="367.5" cy="-50.5" rx="50.5" ry="50.5"/>
<text text-anchor="middle" x="367.5" y="-46.8" font-family="times bold" font-size="14.00" fill="Red">Outcome</text>
</g>
<!-- stroke_team -->
<g id="node2" class="node">
<title>stroke_team</title>
<ellipse fill="none" stroke="black" cx="50.5" cy="-324.5" rx="50.5" ry="50.5"/>
<text text-anchor="middle" x="50.5" y="-328.3" font-family="Times,serif" font-size="14.00">Stroke</text>
<text text-anchor="middle" x="50.5" y="-313.3" font-family="Times,serif" font-size="14.00">team</text>
</g>
<!-- stroke_team&#45;&gt;outcome -->
<g id="edge2" class="edge">
<title>stroke_team&#45;&gt;outcome</title>
<path fill="none" stroke="Black" d="M82.57,-285.08C116.81,-245.37 173.84,-182.87 230.5,-137 256.64,-115.84 288.36,-95.74 314.69,-80.35"/>
<polygon fill="Black" stroke="Black" points="316.49,-83.35 323.4,-75.32 312.99,-77.29 316.49,-83.35"/>
</g>
<!-- thrombolysis -->
<g id="node9" class="node">
<title>thrombolysis</title>
<ellipse fill="none" stroke="red" stroke-width="2" cx="407.5" cy="-187.5" rx="50.5" ry="50.5"/>
<text text-anchor="middle" x="407.5" y="-191.3" font-family="times bold" font-size="14.00" fill="Red">Thrombolysis</text>
<text text-anchor="middle" x="407.5" y="-176.3" font-family="times bold" font-size="14.00" fill="Red">(use/time)</text>
</g>
<!-- stroke_team&#45;&gt;thrombolysis -->
<g id="edge7" class="edge">
<title>stroke_team&#45;&gt;thrombolysis</title>
<path fill="none" stroke="Black" d="M86.88,-289.02C94.01,-283.44 101.71,-278.14 109.5,-274 186.48,-233.07 285.35,-209.7 347.59,-198.06"/>
<polygon fill="Black" stroke="Black" points="348.43,-201.47 357.63,-196.23 347.17,-194.58 348.43,-201.47"/>
</g>
<!-- nihss -->
<g id="node3" class="node">
<title>nihss</title>
<ellipse fill="none" stroke="black" cx="169.5" cy="-324.5" rx="50.5" ry="50.5"/>
<text text-anchor="middle" x="169.5" y="-328.3" font-family="Times,serif" font-size="14.00">Stroke</text>
<text text-anchor="middle" x="169.5" y="-313.3" font-family="Times,serif" font-size="14.00">severity</text>
</g>
<!-- nihss&#45;&gt;outcome -->
<g id="edge1" class="edge">
<title>nihss&#45;&gt;outcome</title>
<path fill="none" stroke="Black" d="M198.93,-283.07C234.51,-234.19 294.35,-151.99 332.33,-99.81"/>
<polygon fill="Black" stroke="Black" points="335.18,-101.85 338.23,-91.71 329.52,-97.73 335.18,-101.85"/>
</g>
<!-- nihss&#45;&gt;thrombolysis -->
<g id="edge9" class="edge">
<title>nihss&#45;&gt;thrombolysis</title>
<path fill="none" stroke="Black" d="M206.49,-290.07C213.56,-284.38 221.08,-278.78 228.5,-274 267.45,-248.94 314.87,-226.61 351.12,-211.06"/>
<polygon fill="Black" stroke="Black" points="352.72,-214.19 360.56,-207.06 349.98,-207.74 352.72,-214.19"/>
</g>
<!-- scan -->
<g id="node4" class="node">
<title>scan</title>
<ellipse fill="none" stroke="black" cx="407.5" cy="-324.5" rx="50.5" ry="50.5"/>
<text text-anchor="middle" x="407.5" y="-328.3" font-family="Times,serif" font-size="14.00">Arrival to</text>
<text text-anchor="middle" x="407.5" y="-313.3" font-family="Times,serif" font-size="14.00">scan time</text>
</g>
<!-- scan&#45;&gt;thrombolysis -->
<g id="edge8" class="edge">
<title>scan&#45;&gt;thrombolysis</title>
<path fill="none" stroke="Black" d="M407.5,-274C407.5,-265.76 407.5,-257.13 407.5,-248.66"/>
<polygon fill="Black" stroke="Black" points="411,-248.45 407.5,-238.45 404,-248.45 411,-248.45"/>
</g>
<!-- mrs -->
<g id="node5" class="node">
<title>mrs</title>
<ellipse fill="none" stroke="black" cx="288.5" cy="-324.5" rx="50.5" ry="50.5"/>
<text text-anchor="middle" x="288.5" y="-328.3" font-family="Times,serif" font-size="14.00">Prior</text>
<text text-anchor="middle" x="288.5" y="-313.3" font-family="Times,serif" font-size="14.00">disability</text>
</g>
<!-- mrs&#45;&gt;outcome -->
<g id="edge3" class="edge">
<title>mrs&#45;&gt;outcome</title>
<path fill="none" stroke="Black" d="M302.35,-275.81C315.88,-229.24 336.47,-158.35 350.87,-108.76"/>
<polygon fill="Black" stroke="Black" points="354.24,-109.71 353.66,-99.14 347.51,-107.76 354.24,-109.71"/>
</g>
<!-- mrs&#45;&gt;thrombolysis -->
<g id="edge10" class="edge">
<title>mrs&#45;&gt;thrombolysis</title>
<path fill="none" stroke="Black" d="M321.65,-285.89C335.96,-269.66 352.82,-250.53 367.8,-233.54"/>
<polygon fill="Black" stroke="Black" points="370.54,-235.72 374.53,-225.9 365.29,-231.09 370.54,-235.72"/>
</g>
<!-- age -->
<g id="node6" class="node">
<title>age</title>
<ellipse fill="none" stroke="black" cx="883.5" cy="-324.5" rx="50.5" ry="50.5"/>
<text text-anchor="middle" x="883.5" y="-320.8" font-family="Times,serif" font-size="14.00">Age</text>
</g>
<!-- age&#45;&gt;outcome -->
<g id="edge4" class="edge">
<title>age&#45;&gt;outcome</title>
<path fill="none" stroke="Black" d="M846.48,-290.11C839.41,-284.42 831.9,-278.8 824.5,-274 688.44,-185.71 512.17,-109.51 423.58,-73.54"/>
<polygon fill="Black" stroke="Black" points="424.83,-70.27 414.25,-69.77 422.21,-76.76 424.83,-70.27"/>
</g>
<!-- age&#45;&gt;thrombolysis -->
<g id="edge11" class="edge">
<title>age&#45;&gt;thrombolysis</title>
<path fill="none" stroke="Black" d="M847.7,-288.77C840.45,-283.15 832.57,-277.9 824.5,-274 808.41,-266.22 578.49,-221.37 467.12,-199.92"/>
<polygon fill="Black" stroke="Black" points="467.53,-196.44 457.05,-197.98 466.2,-203.31 467.53,-196.44"/>
</g>
<!-- sleep -->
<g id="node7" class="node">
<title>sleep</title>
<ellipse fill="none" stroke="black" cx="526.5" cy="-324.5" rx="50.5" ry="50.5"/>
<text text-anchor="middle" x="526.5" y="-328.3" font-family="Times,serif" font-size="14.00">Onset during</text>
<text text-anchor="middle" x="526.5" y="-313.3" font-family="Times,serif" font-size="14.00">sleep</text>
</g>
<!-- sleep&#45;&gt;thrombolysis -->
<g id="edge15" class="edge">
<title>sleep&#45;&gt;thrombolysis</title>
<path fill="none" stroke="Black" d="M493.35,-285.89C479.04,-269.66 462.18,-250.53 447.2,-233.54"/>
<polygon fill="Black" stroke="Black" points="449.71,-231.09 440.47,-225.9 444.46,-235.72 449.71,-231.09"/>
</g>
<!-- af -->
<g id="node8" class="node">
<title>af</title>
<ellipse fill="none" stroke="black" cx="803.5" cy="-461.5" rx="50.5" ry="50.5"/>
<text text-anchor="middle" x="803.5" y="-465.3" font-family="Times,serif" font-size="14.00">Atrial</text>
<text text-anchor="middle" x="803.5" y="-450.3" font-family="Times,serif" font-size="14.00">fibrillation</text>
</g>
<!-- af&#45;&gt;outcome -->
<g id="edge5" class="edge">
<title>af&#45;&gt;outcome</title>
<path fill="none" stroke="Black" d="M851.67,-445.16C883.95,-432.08 923.99,-409.77 943.5,-375 965.46,-335.85 966.75,-312.4 943.5,-274 834.26,-93.61 552.78,-59.07 428.28,-52.75"/>
<polygon fill="Black" stroke="Black" points="428.31,-49.25 418.16,-52.28 427.99,-56.24 428.31,-49.25"/>
</g>
<!-- anticoag -->
<g id="node10" class="node">
<title>anticoag</title>
<ellipse fill="none" stroke="black" cx="645.5" cy="-324.5" rx="50.5" ry="50.5"/>
<text text-anchor="middle" x="645.5" y="-320.8" font-family="Times,serif" font-size="14.00">Anticoagulation</text>
</g>
<!-- af&#45;&gt;anticoag -->
<g id="edge12" class="edge">
<title>af&#45;&gt;anticoag</title>
<path fill="none" stroke="Black" d="M765.25,-427.82C743.02,-408.82 714.85,-384.75 691.42,-364.73"/>
<polygon fill="Black" stroke="Black" points="693.55,-361.95 683.67,-358.11 689,-367.27 693.55,-361.95"/>
</g>
<!-- thrombolysis&#45;&gt;outcome -->
<g id="edge6" class="edge">
<title>thrombolysis&#45;&gt;outcome</title>
<path fill="none" stroke="Red" d="M393.4,-138.9C390.53,-129.23 387.48,-118.95 384.53,-108.97"/>
<polygon fill="Red" stroke="Red" points="387.81,-107.71 381.61,-99.12 381.1,-109.7 387.81,-107.71"/>
</g>
<!-- anticoag&#45;&gt;thrombolysis -->
<g id="edge13" class="edge">
<title>anticoag&#45;&gt;thrombolysis</title>
<path fill="none" stroke="Black" d="M608.51,-290.07C601.44,-284.38 593.92,-278.78 586.5,-274 547.55,-248.94 500.13,-226.61 463.88,-211.06"/>
<polygon fill="Black" stroke="Black" points="465.02,-207.74 454.44,-207.06 462.28,-214.19 465.02,-207.74"/>
</g>
<!-- precise -->
<g id="node11" class="node">
<title>precise</title>
<ellipse fill="none" stroke="black" cx="764.5" cy="-324.5" rx="50.5" ry="50.5"/>
<text text-anchor="middle" x="764.5" y="-335.8" font-family="Times,serif" font-size="14.00">Estimated or </text>
<text text-anchor="middle" x="764.5" y="-320.8" font-family="Times,serif" font-size="14.00">precicely known</text>
<text text-anchor="middle" x="764.5" y="-305.8" font-family="Times,serif" font-size="14.00">onset time</text>
</g>
<!-- precise&#45;&gt;thrombolysis -->
<g id="edge14" class="edge">
<title>precise&#45;&gt;thrombolysis</title>
<path fill="none" stroke="Black" d="M728.12,-289.02C720.99,-283.44 713.29,-278.14 705.5,-274 628.52,-233.07 529.65,-209.7 467.41,-198.06"/>
<polygon fill="Black" stroke="Black" points="467.83,-194.58 457.37,-196.23 466.57,-201.47 467.83,-194.58"/>
</g>
</g>
</svg>