<?xml version="1.0" encoding="UTF-8" standalone="no"?>
<!DOCTYPE svg PUBLIC "-//W3C//DTD SVG 1.1//EN"
 "http://www.w3.org/Graphics/SVG/1.1/DTD/svg11.dtd">
<!-- Generated by graphviz version 2.42.4 (0)
 -->
<!-- Pages: 1 -->
<svg width="646pt" height="548pt"
 viewBox="0.00 0.00 645.74 548.00" xmlns="http://www.w3.org/2000/svg" xmlns:xlink="http://www.w3.org/1999/xlink">
<g id="graph0" class="graph" transform="scale(1 1) rotate(0) translate(4 544)">
<polygon fill="white" stroke="transparent" points="-4,4 -4,-544 641.74,-544 641.74,4 -4,4"/>
<!-- outcome -->
<g id="node1" class="node">
<title>outcome</title>
<ellipse fill="none" stroke="black" stroke-width="2" cx="306" cy="-54" rx="54" ry="54"/>
<text text-anchor="middle" x="306" y="-50.3" font-family="times bold" font-size="14.00">Outcome</text>
</g>
<!-- nihss -->
<g id="node2" class="node">
<title>nihss</title>
<ellipse fill="none" stroke="black" cx="54" cy="-342" rx="54" ry="54"/>
<text text-anchor="middle" x="54" y="-345.8" font-family="Times,serif" font-size="14.00">Stroke</text>
<text text-anchor="middle" x="54" y="-330.8" font-family="Times,serif" font-size="14.00">severity</text>
</g>
<!-- nihss&#45;&gt;outcome -->
<g id="edge1" class="edge">
<title>nihss&#45;&gt;outcome</title>
<path fill="none" stroke="Black" d="M82.86,-296.04C110.51,-254.53 154.63,-192.21 200,-144 216.71,-126.25 236.82,-108.58 255.02,-93.73"/>
<polygon fill="Black" stroke="Black" points="257.64,-96.12 263.23,-87.11 253.24,-90.67 257.64,-96.12"/>
</g>
<!-- thrombolysis -->
<g id="node6" class="node">
<title>thrombolysis</title>
<ellipse fill="none" stroke="red" cx="306" cy="-198" rx="54" ry="54"/>
<text text-anchor="middle" x="306" y="-194.3" font-family="times bold" font-size="14.00" fill="Red">Thrombolysis</text>
</g>
<!-- nihss&#45;&gt;thrombolysis -->
<g id="edge6" class="edge">
<title>nihss&#45;&gt;thrombolysis</title>
<path fill="none" stroke="Black" stroke-dasharray="5,2" d="M93.81,-304.88C101.27,-298.89 109.18,-293.01 117,-288 157.96,-261.76 207.89,-238.58 246.14,-222.46"/>
<polygon fill="Black" stroke="Black" points="247.71,-225.6 255.6,-218.52 245.02,-219.14 247.71,-225.6"/>
</g>
<!-- mrs -->
<g id="node3" class="node">
<title>mrs</title>
<ellipse fill="none" stroke="black" cx="180" cy="-342" rx="54" ry="54"/>
<text text-anchor="middle" x="180" y="-345.8" font-family="Times,serif" font-size="14.00">Prior</text>
<text text-anchor="middle" x="180" y="-330.8" font-family="Times,serif" font-size="14.00">disability</text>
</g>
<!-- mrs&#45;&gt;outcome -->
<g id="edge2" class="edge">
<title>mrs&#45;&gt;outcome</title>
<path fill="none" stroke="Black" d="M191.94,-289.12C202.4,-248.39 219.6,-190.91 243,-144 249.59,-130.79 258.02,-117.36 266.54,-105.08"/>
<polygon fill="Black" stroke="Black" points="269.5,-106.96 272.44,-96.78 263.8,-102.91 269.5,-106.96"/>
</g>
<!-- mrs&#45;&gt;thrombolysis -->
<g id="edge7" class="edge">
<title>mrs&#45;&gt;thrombolysis</title>
<path fill="none" stroke="Black" stroke-dasharray="5,2" d="M215.43,-301.07C230.33,-284.28 247.79,-264.6 263.38,-247.03"/>
<polygon fill="Black" stroke="Black" points="266.38,-248.93 270.4,-239.13 261.14,-244.28 266.38,-248.93"/>
</g>
<!-- age -->
<g id="node4" class="node">
<title>age</title>
<ellipse fill="none" stroke="black" cx="558" cy="-342" rx="54" ry="54"/>
<text text-anchor="middle" x="558" y="-338.3" font-family="Times,serif" font-size="14.00">Age</text>
</g>
<!-- age&#45;&gt;outcome -->
<g id="edge3" class="edge">
<title>age&#45;&gt;outcome</title>
<path fill="none" stroke="Black" d="M522.7,-300.93C476.9,-248.96 397.09,-158.38 348.16,-102.85"/>
<polygon fill="Black" stroke="Black" points="350.71,-100.45 341.47,-95.26 345.46,-105.07 350.71,-100.45"/>
</g>
<!-- age&#45;&gt;thrombolysis -->
<g id="edge8" class="edge">
<title>age&#45;&gt;thrombolysis</title>
<path fill="none" stroke="Black" stroke-dasharray="5,2" d="M518.19,-304.88C510.73,-298.89 502.82,-293.01 495,-288 454.04,-261.76 404.11,-238.58 365.86,-222.46"/>
<polygon fill="Black" stroke="Black" points="366.98,-219.14 356.4,-218.52 364.29,-225.6 366.98,-219.14"/>
</g>
<!-- af -->
<g id="node5" class="node">
<title>af</title>
<ellipse fill="none" stroke="black" cx="473" cy="-486" rx="54" ry="54"/>
<text text-anchor="middle" x="473" y="-489.8" font-family="Times,serif" font-size="14.00">Atrial</text>
<text text-anchor="middle" x="473" y="-474.8" font-family="Times,serif" font-size="14.00">fibrillation</text>
</g>
<!-- af&#45;&gt;outcome -->
<g id="edge4" class="edge">
<title>af&#45;&gt;outcome</title>
<path fill="none" stroke="Black" d="M524.63,-468.95C558.61,-455.4 600.48,-432.28 621,-396 644.63,-354.22 641.49,-331.4 621,-288 570.24,-180.5 441.97,-111.18 365.68,-78.02"/>
<polygon fill="Black" stroke="Black" points="366.76,-74.67 356.19,-73.96 364.01,-81.11 366.76,-74.67"/>
</g>
<!-- anticoag -->
<g id="node7" class="node">
<title>anticoag</title>
<ellipse fill="none" stroke="black" cx="306" cy="-342" rx="54" ry="54"/>
<text text-anchor="middle" x="306" y="-338.3" font-family="Times,serif" font-size="14.00">Anticoagulation</text>
</g>
<!-- af&#45;&gt;anticoag -->
<g id="edge9" class="edge">
<title>af&#45;&gt;anticoag</title>
<path fill="none" stroke="Black" stroke-dasharray="5,2" d="M432.15,-450.26C408.71,-430.33 379.14,-405.19 354.52,-384.26"/>
<polygon fill="Black" stroke="Black" points="356.61,-381.44 346.72,-377.62 352.07,-386.77 356.61,-381.44"/>
</g>
<!-- thrombolysis&#45;&gt;outcome -->
<g id="edge5" class="edge">
<title>thrombolysis&#45;&gt;outcome</title>
<path fill="none" stroke="Black" d="M306,-143.72C306,-135.44 306,-126.82 306,-118.34"/>
<polygon fill="Black" stroke="Black" points="309.5,-118.11 306,-108.11 302.5,-118.11 309.5,-118.11"/>
</g>
<!-- anticoag&#45;&gt;thrombolysis -->
<g id="edge10" class="edge">
<title>anticoag&#45;&gt;thrombolysis</title>
<path fill="none" stroke="Black" stroke-dasharray="5,2" d="M306,-287.72C306,-279.44 306,-270.82 306,-262.34"/>
<polygon fill="Black" stroke="Black" points="309.5,-262.11 306,-252.11 302.5,-262.11 309.5,-262.11"/>
</g>
<!-- precise -->
<g id="node8" class="node">
<title>precise</title>
<ellipse fill="none" stroke="black" cx="432" cy="-342" rx="54" ry="54"/>
<text text-anchor="middle" x="432" y="-353.3" font-family="Times,serif" font-size="14.00">Precicely</text>
<text text-anchor="middle" x="432" y="-338.3" font-family="Times,serif" font-size="14.00">known</text>
<text text-anchor="middle" x="432" y="-323.3" font-family="Times,serif" font-size="14.00">onset</text>
</g>
<!-- precise&#45;&gt;thrombolysis -->
<g id="edge11" class="edge">
<title>precise&#45;&gt;thrombolysis</title>
<path fill="none" stroke="Black" stroke-dasharray="5,2" d="M396.57,-301.07C381.67,-284.28 364.21,-264.6 348.62,-247.03"/>
<polygon fill="Black" stroke="Black" points="350.86,-244.28 341.6,-239.13 345.62,-248.93 350.86,-244.28"/>
</g>
</g>
</svg>